<svg xmlns="http://www.w3.org/2000/svg" width="22" height="16.843" viewBox="0 0 22 16.843"><defs><style>.a{fill:#a5a5a5;}</style></defs><g transform="translate(-1234 -318)"><g transform="translate(1234 318)"><path class="a" d="M433.153,410.453H413.6v-1.2a1.217,1.217,0,0,1,1.222-1.2h17.112a1.217,1.217,0,0,1,1.222,1.2Zm0,10.828a1.217,1.217,0,0,1-1.222,1.2h-7.945v-.568a2.415,2.415,0,0,0-2.49-2.44c-.745,0-.932.263-1.787.263s-1.042-.263-1.787-.263a2.451,2.451,0,0,0-2.055,1.03,2.482,2.482,0,0,0-.436,1.409v.568h-.612a1.217,1.217,0,0,1-1.222-1.2v-9.625h19.556Zm-10.389,1.2h-6.111v-.568a1.3,1.3,0,0,1,.23-.737,1.242,1.242,0,0,1,1.042-.5,13.728,13.728,0,0,0,1.787.263,13.953,13.953,0,0,0,1.787-.263,1.252,1.252,0,0,1,1.042.5,1.3,1.3,0,0,1,.23.737v.568Zm9.167-15.641H414.819a2.427,2.427,0,0,0-2.444,2.405v12.032a2.428,2.428,0,0,0,2.444,2.407h17.112a2.428,2.428,0,0,0,2.444-2.407V409.249A2.427,2.427,0,0,0,431.931,406.844Zm-12.223,7.218a1.8,1.8,0,1,1-1.834,1.805A1.82,1.82,0,0,1,419.708,414.062Zm0,4.812a3.008,3.008,0,1,0-3.056-3.007A3.031,3.031,0,0,0,419.708,418.874Zm6.417,1.2H430.4a.3.3,0,0,0,.3-.3v-.6a.3.3,0,0,0-.3-.3h-4.278a.3.3,0,0,0-.306.3v.6A.3.3,0,0,0,426.125,420.078Zm0-4.813H430.4a.3.3,0,0,0,.3-.3v-.6a.3.3,0,0,0-.3-.3h-4.278a.3.3,0,0,0-.306.3v.6A.3.3,0,0,0,426.125,415.265Zm0,2.407H430.4a.3.3,0,0,0,.3-.3v-.6a.3.3,0,0,0-.3-.3h-4.278a.3.3,0,0,0-.306.3v.6A.3.3,0,0,0,426.125,417.672Z" transform="translate(-412.375 -406.844)"/></g></g></svg>