<svg xmlns="http://www.w3.org/2000/svg" width="22" height="16.499" viewBox="0 0 22 16.499"><defs><style>.a{fill:#a5a5a5;}</style></defs><path class="a" d="M186.687,421.969H168.813a.691.691,0,0,1-.689-.687v-8.808c.981.8,2.527,2.045,5.617,4.5.881.705,2.436,2.256,4.009,2.248,1.564.013,3.107-1.525,4.009-2.248,3.09-2.453,4.636-3.695,5.617-4.5v8.808A.691.691,0,0,1,186.687,421.969Zm-17.874-13.75h17.874a.691.691,0,0,1,.689.687v1.78c-.941.795-2.287,1.89-6.471,5.212-.726.576-2.157,1.964-3.154,1.947-1,.017-2.432-1.372-3.154-1.947-4.185-3.322-5.53-4.417-6.471-5.212v-1.78A.691.691,0,0,1,168.813,408.219Zm17.874-1.375H168.813a2.062,2.062,0,0,0-2.063,2.062v12.376a2.062,2.062,0,0,0,2.063,2.062h17.874a2.062,2.062,0,0,0,2.063-2.062V408.906A2.062,2.062,0,0,0,186.687,406.844Z" transform="translate(-166.75 -406.844)"/></svg>