<svg xmlns="http://www.w3.org/2000/svg" width="22" height="22" viewBox="0 0 22 22"><defs><style>.a{fill:#a5a5a5;}</style></defs><path class="a" d="M415.868,451.75l-.989-4.28,4.615-1.977,2.558,3.128a16.608,16.608,0,0,0,8.941-8.941l-3.128-2.558,1.977-4.614,4.28.988A18.275,18.275,0,0,1,415.868,451.75Zm18.593-19.59-4.332-1a1.348,1.348,0,0,0-1.539.777l-2,4.663a1.349,1.349,0,0,0,.383,1.569l2.316,1.894a15.039,15.039,0,0,1-6.858,6.858l-1.894-2.316a1.349,1.349,0,0,0-1.569-.383l-4.658,2a1.34,1.34,0,0,0-.777,1.534l1,4.326a1.343,1.343,0,0,0,1.31,1.045A19.654,19.654,0,0,0,435.5,433.466,1.335,1.335,0,0,0,434.461,432.16Z" transform="translate(-413.5 -431.125)"/></svg>