<svg xmlns="http://www.w3.org/2000/svg" width="13.286" height="18" viewBox="0 0 13.286 18"><defs><style>.a{fill:#5f5f5f;}</style></defs><path class="a" d="M179.89,431.271a.861.861,0,0,1-.6.619,2.452,2.452,0,0,0-1.591.856.8.8,0,0,1-1.029.122,1.915,1.915,0,0,0-2.065,0,.811.811,0,0,1-1.03-.123,2.473,2.473,0,0,0-1.59-.857.859.859,0,0,1-.6-.619,2.748,2.748,0,0,0-1.039-1.858.911.911,0,0,1-.219-.855,2.812,2.812,0,0,0,0-2.143.908.908,0,0,1,.219-.854,2.752,2.752,0,0,0,1.039-1.861.857.857,0,0,1,.6-.618,2.634,2.634,0,0,0,1.8-1.077.815.815,0,0,1,.8-.225,2.569,2.569,0,0,0,2.086,0,.822.822,0,0,1,.807.224,2.634,2.634,0,0,0,1.8,1.078.858.858,0,0,1,.594.619,2.745,2.745,0,0,0,1.04,1.858.911.911,0,0,1,.219.855,2.806,2.806,0,0,0,0,2.143.909.909,0,0,1-.219.854,2.753,2.753,0,0,0-1.04,1.861Zm1.006,4.745-1.467-.056-1.008,1.081-1.173-2.931a1.9,1.9,0,0,0,1.246-.575c.4-.408.341-.359,1.094-.56.027-.008.051-.025.079-.033Zm-8.031,1.025-1.008-1.081-1.467.057,1.231-3.075c.027.009.05.026.079.034.757.206.707.161,1.093.559a1.91,1.91,0,0,0,1.245.581Zm8.854-6.842a2.05,2.05,0,0,0,.5-1.928,1.949,1.949,0,0,1,0-1.571,2.049,2.049,0,0,0-.5-1.929,1.889,1.889,0,0,1-.758-1.357A1.979,1.979,0,0,0,179.588,422a1.794,1.794,0,0,1-1.306-.781,1.92,1.92,0,0,0-1.887-.521,1.747,1.747,0,0,1-1.5,0,1.917,1.917,0,0,0-1.886.522A1.8,1.8,0,0,1,171.7,422a1.978,1.978,0,0,0-1.375,1.418,1.9,1.9,0,0,1-.758,1.358,2.051,2.051,0,0,0-.5,1.929,1.946,1.946,0,0,1,0,1.57,2.052,2.052,0,0,0,.5,1.929,1.892,1.892,0,0,1,.758,1.357,2,2,0,0,0,.368.717l-1.651,4.127a.562.562,0,0,0,.512.775l1.845-.072,1.255,1.346a.54.54,0,0,0,.4.176.553.553,0,0,0,.514-.35l1.815-4.537a.773.773,0,0,1,.522,0l1.815,4.537a.552.552,0,0,0,.514.35.54.54,0,0,0,.4-.176l1.255-1.345,1.845.071a.562.562,0,0,0,.512-.775l-1.65-4.126a2.022,2.022,0,0,0,.367-.717,1.9,1.9,0,0,1,.758-1.359Zm-6.077-.576a2.25,2.25,0,1,1,2.215-2.249A2.234,2.234,0,0,1,175.642,429.623Zm0-5.624a3.375,3.375,0,1,0,3.322,3.375A3.352,3.352,0,0,0,175.642,424Z" transform="translate(-169 -420.625)"/></svg>